<?xml version="1.0" encoding="UTF-8"?>
<svg xmlns="http://www.w3.org/2000/svg" viewBox="0 0 64 64" width="512" height="512"><g id="cloud"><path  fill="#3742fa" d="M32,37a4,4,0,1,0-4-4A4,4,0,0,0,32,37Zm0-6a2,2,0,1,1-2,2A2,2,0,0,1,32,31Z"/><path  fill="#3742fa" d="M9,47V36H7V47a3,3,0,0,0,3,3h4V48H10A1,1,0,0,1,9,47Z"/><path  fill="#3742fa" d="M55,47a1,1,0,0,1-1,1H50v2h4a3,3,0,0,0,3-3V36H55Z"/><path fill="#3742fa" d="M54,18H51.79A9.636,9.636,0,0,0,52,16,10.016,10.016,0,0,0,42,6a9.859,9.859,0,0,0-5.33,1.55A14.987,14.987,0,0,0,12.03,18H10a8,8,0,0,0,0,16h6V51a3.009,3.009,0,0,0,3,3h9.72l-.5,2H25.6a.992.992,0,0,0-.94.66l-1.47,4A1,1,0,0,0,24.13,62H39.87a1,1,0,0,0,.94-1.34l-1.47-4A.992.992,0,0,0,38.4,56H35.78l-.5-2H45a3.009,3.009,0,0,0,3-3V34h6a8,8,0,0,0,0-16ZM37.7,58l.74,2H25.56l.74-2Zm-7.42-2,.5-2h2.44l.5,2ZM46,51a1,1,0,0,1-1,1H19a1,1,0,0,1-1-1V50H46Zm0-3H18V34h5v1a1,1,0,0,0,.76.97l.67.17-.36.59a1,1,0,0,0,.15,1.22l2.83,2.83a1.014,1.014,0,0,0,1.22.15l.59-.36.17.67A1,1,0,0,0,30,42h4a1,1,0,0,0,.97-.76l.17-.67.59.36a1.014,1.014,0,0,0,1.22-.15l2.83-2.83a1,1,0,0,0,.15-1.22l-.36-.59.67-.17A1,1,0,0,0,41,35V34h5ZM26.84,29.99l-.65-1.08,1.72-1.72,1.08.64a.987.987,0,0,0,.9.07,1.007,1.007,0,0,0,.59-.68l.3-1.22h2.44l.3,1.22a1.007,1.007,0,0,0,.59.68.989.989,0,0,0,.9-.07l1.08-.64,1.72,1.72-.65,1.08a1.019,1.019,0,0,0-.06.9,1.007,1.007,0,0,0,.68.59l1.22.3v2.44l-1.22.3a1.007,1.007,0,0,0-.68.59,1.019,1.019,0,0,0,.06.9l.65,1.08-1.72,1.72-1.08-.65a1.019,1.019,0,0,0-.9-.06,1.007,1.007,0,0,0-.59.68L33.22,40H30.78l-.3-1.22a1.007,1.007,0,0,0-.59-.68,1.019,1.019,0,0,0-.9.06l-1.08.65-1.72-1.72.65-1.08a1.019,1.019,0,0,0,.06-.9,1.007,1.007,0,0,0-.68-.59L25,34.22V31.78l1.22-.3a1.007,1.007,0,0,0,.68-.59A1.019,1.019,0,0,0,26.84,29.99ZM54,32H41V31a1,1,0,0,0-.76-.97l-.67-.17.36-.59a1,1,0,0,0-.15-1.22l-2.83-2.83a1.012,1.012,0,0,0-1.22-.15l-.59.36-.17-.67A1,1,0,0,0,34,24H30a1,1,0,0,0-.97.76l-.17.67-.59-.36a1.012,1.012,0,0,0-1.22.15l-2.83,2.83a1,1,0,0,0-.15,1.22l.36.59-.67.17A1,1,0,0,0,23,31v1H10a6,6,0,0,1,0-12h3a1,1,0,0,0,1-1A12.98,12.98,0,0,1,35.9,9.55a1.013,1.013,0,0,0,1.29.07A7.923,7.923,0,0,1,42,8a8.011,8.011,0,0,1,8,8,8.238,8.238,0,0,1-.46,2.67A.99.99,0,0,0,50.48,20H54a6,6,0,0,1,0,12Z"/></g></svg>
