<svg id="Layer_1" data-name="Layer 1" xmlns="http://www.w3.org/2000/svg" viewBox="0 0 119.5 161">
  <defs>
    <style>
      .cls-1 {
        font-size: 30px;
      }

      .cls-1, .cls-3 {
        fill: #3742fa;
        font-family: Raleway;
      }

      .cls-2, .cls-5 {
        fill: none;
      }

      .cls-2, .cls-3 {
        stroke: #3742fa;
      }

      .cls-2, .cls-5, .cls-6, .cls-8 {
        stroke-linecap: round;
      }

      .cls-2, .cls-3, .cls-4, .cls-5, .cls-6, .cls-7, .cls-8 {
        stroke-miterlimit: 10;
      }

      .cls-2 {
        stroke-width: 3px;
      }

      .cls-3 {
        font-size: 10px;
        stroke-width: 0.5px;
      }

      .cls-4, .cls-6 {
        fill: #fbb03b;
      }

      .cls-4, .cls-5, .cls-6, .cls-7, .cls-8 {
        stroke: #000;
        stroke-width: 2px;
      }

      .cls-7 {
        fill: #ccc;
      }

      .cls-9 {
        fill: #ff7bac;
      }

      .cls-10 {
        fill: #666;
      }
    </style>
  </defs>
  <title>moon sun clock</title>
  <text class="cls-1" transform="translate(28.62207 100.70068)">11 03</text>
  <line class="cls-2" x1="16" y1="73" x2="118" y2="73"/>
  <line class="cls-2" x1="16" y1="110.5" x2="118" y2="110.5"/>
  <text class="cls-3" transform="translate(97.98438 101.09473)">AM</text>
  <circle class="cls-4" cx="66.66129" cy="32.5" r="15.91935"/>
  <path class="cls-5" d="M87.871,40.09677s1.35484-4.06451,3.38709,0" transform="translate(-29 -12)"/>
  <path class="cls-5" d="M100.74194,40.09677s1.35483-4.06451,3.38709,0" transform="translate(-29 -12)"/>
  <line class="cls-5" x1="46" y1="32.16129" x2="35.83871" y2="32.16129"/>
  <line class="cls-5" x1="52.09677" y1="17.25806" x2="44.64516" y2="9.80645"/>
  <line class="cls-5" x1="67" y1="11.16129" x2="67" y2="1"/>
  <line class="cls-5" x1="81.90323" y1="17.25806" x2="88.67742" y2="10.48387"/>
  <line class="cls-5" x1="87.32258" y1="32.16129" x2="98.16129" y2="32.16129"/>
  <line class="cls-5" x1="81.90323" y1="47.06452" x2="89.35484" y2="54.51613"/>
  <line class="cls-5" x1="67" y1="53.16129" x2="67" y2="64"/>
  <line class="cls-5" x1="52.09677" y1="47.06452" x2="44.64516" y2="54.51613"/>
  <path class="cls-6" d="M91.93548,49.58065s4.06452,5.41935,8.129,0" transform="translate(-29 -12)"/>
  <circle class="cls-7" cx="67" cy="141" r="18"/>
  <path class="cls-5" d="M85.2,145.8s2.16-3.6,3.6,0" transform="translate(-29 -12)"/>
  <path class="cls-5" d="M103.21353,145.82978s1.38-3.62342,3.59951-.05978" transform="translate(-29 -12)"/>
  <circle class="cls-8" cx="67" cy="143.88" r="5.04"/>
  <circle class="cls-9" cx="67.36" cy="145.68" r="3.24"/>
  <circle class="cls-10" cx="78.88" cy="142.8" r="2.52"/>
  <circle class="cls-10" cx="57.28" cy="147.84" r="1.8"/>
  <circle class="cls-10" cx="64.48" cy="153.6" r="1.08"/>
  <circle class="cls-10" cx="67.36" cy="129.84" r="1.8"/>
  <circle class="cls-7" cx="19" cy="142" r="18"/>
  <path class="cls-5" d="M37.2,146.8s2.16-3.6,3.6,0" transform="translate(-29 -12)"/>
  <path class="cls-5" d="M55.21353,146.82978s1.38-3.62342,3.59951-.05978" transform="translate(-29 -12)"/>
  <circle class="cls-8" cx="20.02" cy="146.9" r="1.9"/>
  <circle class="cls-9" cx="20.15571" cy="147.57857" r="1.22143"/>
  <circle class="cls-10" cx="30.88" cy="143.8" r="2.52"/>
  <circle class="cls-10" cx="9.28" cy="148.84" r="1.8"/>
  <circle class="cls-10" cx="16.48" cy="154.6" r="1.08"/>
  <circle class="cls-10" cx="19.36" cy="130.84" r="1.8"/>
  <path class="cls-5" d="M101,40a1.99255,1.99255,0,0,1,1.31564-.70906A2.06589,2.06589,0,0,1,104,40" transform="translate(-29 -12)"/>
</svg>
